<svg xmlns="http://www.w3.org/2000/svg" version="1.1" xmlns:xlink="http://www.w3.org/1999/xlink" xmlns:svgjs="http://svgjs.dev/svgjs" width="1000" height="361" viewBox="0 0 1000 361"><g transform="matrix(1,0,0,1,-0.6060606060606233,0.5811536041254612)"><svg viewBox="0 0 396 143" data-background-color="#ffffff" preserveAspectRatio="xMidYMid meet" height="361" width="1000" xmlns="http://www.w3.org/2000/svg" xmlns:xlink="http://www.w3.org/1999/xlink"><g id="tight-bounds" transform="matrix(1,0,0,1,0.2400000000000091,-0.23020766035995166)"><svg viewBox="0 0 395.52 143.46041532071987" height="143.46041532071987" width="395.52"><g><svg viewBox="0 0 395.52 143.46041532071987" height="143.46041532071987" width="395.52"><g><svg viewBox="0 0 395.52 143.46041532071987" height="143.46041532071987" width="395.52"><g id="textblocktransform"><svg viewBox="0 0 395.52 143.46041532071987" height="143.46041532071987" width="395.52" id="textblock"><g><svg viewBox="0 0 395.52 143.46041532071987" height="143.46041532071987" width="395.52"><g transform="matrix(1,0,0,1,0,0)"><svg width="395.52" viewBox="2.5 -37.8 108.34 39.3" height="143.46041532071987" data-palette-color="#3d3839"><path d="M13.5-4L8 1.5 2.5-4 8-9.5 13.5-4ZM41.4 0L17 0 17-4.5 28.9-17.15 17.05-17.15 17.05-23.65 40.5-23.65 40.5-18.95 32.6-9.35 29.6-6.5 31.1-6.5 41.4-7.5 41.4 0ZM54.4 0L45.4 0 45.4-15.05 44.4-20.55 45.95-23.6 53.4-23.6 53.4-21.45 53.85-21.15Q54.4-21.65 55.37-22.33 56.35-23 57.75-23.55 59.15-24.1 60.9-24.1L60.9-24.1Q65.4-24.1 67.65-21.55 69.9-19 69.9-14.4L69.9-14.4 69.9-8.05 70.95-3.05 69.9 0 60.9 0 60.9-13.1Q60.9-15 60.07-16.03 59.25-17.05 57.5-17.05L57.5-17.05 54.4-16.1 54.4 0ZM86.59-31.45L80.24-25.05 73.89-31.45 80.24-37.8 86.59-31.45ZM84.74 0L75.74 0 75.74-16.55 74.69-20.55 75.69-23.6 84.74-23.6 84.74 0ZM100.09 0.5L100.09 0.5Q96.44 0.5 93.64-0.25 90.84-1 89.29-1.8L89.29-1.8 89.29-8.75Q91.34-7.85 93.52-7.35 95.69-6.85 97.44-6.68 99.19-6.5 99.94-6.5L99.94-6.5Q100.79-6.5 101.14-6.78 101.49-7.05 101.49-7.45L101.49-7.45Q101.49-8 100.59-8.38 99.69-8.75 97.19-9.35L97.19-9.35Q95.14-9.85 93.22-10.63 91.29-11.4 90.06-12.8 88.84-14.2 88.84-16.55L88.84-16.55Q88.84-19.45 90.19-21.1 91.54-22.75 94.04-23.43 96.54-24.1 99.89-24.1L99.89-24.1Q101.79-24.1 103.44-23.9 105.09-23.7 105.79-23.6L105.79-23.6 110.44-20.6 108.19-15.25 99.44-17.15Q97.84-17.15 97.84-16.1L97.84-16.1Q97.84-15 100.14-14.45L100.14-14.45Q101.94-14.05 103.84-13.58 105.74-13.1 107.31-12.35 108.89-11.6 109.87-10.35 110.84-9.1 110.84-7.05L110.84-7.05Q110.84-3.25 108.12-1.38 105.39 0.5 100.09 0.5Z" opacity="1" transform="matrix(1,0,0,1,0,0)" fill="#3d3839" class="wordmark-text-0" data-fill-palette-color="primary" id="text-0"></path></svg></g></svg></g></svg></g></svg></g></svg></g><defs></defs></svg><rect width="395.52" height="143.46041532071987" fill="none" stroke="none" visibility="hidden"></rect></g></svg></g></svg>